<?xml version="1.0" encoding="UTF-8" standalone="no"?>
<!DOCTYPE svg PUBLIC "-//W3C//DTD SVG 1.1//EN" "http://www.w3.org/Graphics/SVG/1.1/DTD/svg11.dtd">
<svg width="100%" height="100%" viewBox="0 0 1381 902" version="1.1" xmlns="http://www.w3.org/2000/svg" xmlns:xlink="http://www.w3.org/1999/xlink" xml:space="preserve" xmlns:serif="http://www.serif.com/" style="fill-rule:evenodd;clip-rule:evenodd;stroke-linejoin:round;stroke-miterlimit:2;">
    <g transform="matrix(1,0,0,1,-333,-219)">
        <g transform="matrix(1,0,0,1.31535,0,0)">
            <g id="Logo" transform="matrix(29.9988,0,0,22.8067,-23350.6,-38062.2)">
                <path d="M789.5,1690.04L791.526,1690L791.526,1681.53L789.5,1681.56L789.5,1676.76L810.763,1676.73C811.495,1676.73 812.274,1676.78 813.099,1676.89C813.925,1677 814.687,1677.22 815.385,1677.56C816.053,1677.87 816.612,1678.33 817.062,1678.93C817.105,1678.89 817.148,1678.85 817.192,1678.81C818.086,1677.98 819.146,1677.34 820.371,1676.89C821.597,1676.44 822.925,1676.21 824.355,1676.21C825.786,1676.21 827.105,1676.44 828.314,1676.89C829.523,1677.34 830.565,1677.97 831.442,1678.77C832.319,1679.57 833.004,1680.53 833.498,1681.65C833.992,1682.78 834.239,1684 834.239,1685.33C834.239,1685.84 834.183,1686.35 834.073,1686.84C833.962,1687.33 833.817,1687.79 833.639,1688.2C833.46,1688.62 833.256,1689 833.026,1689.33C832.796,1689.66 832.57,1689.92 832.349,1690.11L832.349,1690.21L835.5,1690.04L835.5,1706.22L789.5,1706.25L789.5,1690.04ZM817.316,1703.4C817.087,1703.4 816.862,1703.38 816.64,1703.34C816.419,1703.3 816.206,1703.24 816,1703.16C815.795,1703.09 815.602,1702.99 815.42,1702.89C815.239,1702.79 815.076,1702.67 814.932,1702.54L816.092,1701.28C816.226,1701.42 816.403,1701.55 816.624,1701.66C816.846,1701.77 817.074,1701.83 817.308,1701.83C817.415,1701.83 817.512,1701.81 817.6,1701.77C817.688,1701.74 817.732,1701.67 817.732,1701.57C817.732,1701.51 817.718,1701.47 817.688,1701.43C817.659,1701.39 817.607,1701.35 817.532,1701.31C817.458,1701.27 817.355,1701.23 817.224,1701.18C817.094,1701.13 816.93,1701.08 816.732,1701.01C816.54,1700.95 816.356,1700.87 816.18,1700.79C816.004,1700.7 815.848,1700.59 815.712,1700.46C815.576,1700.33 815.468,1700.18 815.388,1700C815.308,1699.82 815.268,1699.61 815.268,1699.36C815.268,1699.01 815.34,1698.71 815.484,1698.46C815.628,1698.22 815.814,1698.02 816.04,1697.86C816.267,1697.7 816.522,1697.59 816.804,1697.52C817.087,1697.45 817.367,1697.41 817.644,1697.41C818.018,1697.41 818.398,1697.49 818.784,1697.63C819.171,1697.77 819.511,1697.98 819.804,1698.25L818.62,1699.46C818.492,1699.3 818.335,1699.18 818.148,1699.1C817.962,1699.02 817.794,1698.97 817.644,1698.97C817.506,1698.97 817.394,1698.99 817.308,1699.03C817.223,1699.07 817.18,1699.14 817.18,1699.23C817.18,1699.32 817.224,1699.38 817.312,1699.42C817.4,1699.47 817.543,1699.52 817.74,1699.58C817.943,1699.65 818.156,1699.72 818.38,1699.81C818.604,1699.89 818.811,1700 819,1700.14C819.19,1700.27 819.346,1700.44 819.468,1700.64C819.591,1700.84 819.652,1701.08 819.652,1701.37C819.652,1701.72 819.584,1702.01 819.448,1702.27C819.312,1702.52 819.134,1702.73 818.912,1702.9C818.691,1703.07 818.442,1703.19 818.164,1703.27C817.887,1703.36 817.604,1703.4 817.316,1703.4ZM831.668,1703.24L829.764,1703.24L829.764,1699.18L828.372,1699.18L828.372,1697.57L833.06,1697.57L833.06,1699.18L831.668,1699.18L831.668,1703.24ZM825.868,1697.57L827.788,1697.57L827.788,1703.24L825.868,1703.24L825.868,1697.57ZM795.236,1703.24L793.332,1703.24L793.332,1699.18L791.94,1699.18L791.94,1697.57L796.628,1697.57L796.628,1699.18L795.236,1699.18L795.236,1703.24ZM822.292,1701.41L822.292,1703.24L820.396,1703.24L820.396,1697.57L822.828,1697.57C823.116,1697.57 823.399,1697.61 823.676,1697.67C823.954,1697.73 824.202,1697.83 824.42,1697.98C824.639,1698.12 824.815,1698.32 824.948,1698.56C825.082,1698.81 825.148,1699.11 825.148,1699.48C825.148,1699.83 825.083,1700.13 824.952,1700.37C824.822,1700.62 824.648,1700.82 824.432,1700.97C824.216,1701.13 823.968,1701.24 823.688,1701.31C823.408,1701.38 823.122,1701.41 822.828,1701.41L822.292,1701.41ZM800.196,1703.24L799.108,1701.21L799.052,1701.21L799.052,1703.24L797.212,1703.24L797.212,1697.57L799.652,1697.57C799.93,1697.57 800.206,1697.6 800.48,1697.66C800.755,1697.71 801,1697.81 801.216,1697.95C801.432,1698.1 801.607,1698.29 801.74,1698.52C801.874,1698.76 801.94,1699.06 801.94,1699.41C801.94,1699.76 801.855,1700.07 801.684,1700.33C801.514,1700.59 801.268,1700.8 800.948,1700.94L802.315,1703.12L804.5,1697.57L806.524,1697.57L808.732,1703.24L806.66,1703.24L806.364,1702.41L804.564,1702.41L804.284,1703.24L800.196,1703.24ZM809.132,1697.57L811.028,1697.57L812.644,1700.45L812.676,1700.45L812.596,1697.57L814.404,1697.57L814.404,1703.24L812.46,1703.24L810.892,1700.53L810.86,1700.53L810.94,1703.24L809.132,1703.24L809.132,1697.57ZM805.484,1699.55L805.02,1700.95L805.94,1700.95L805.484,1699.55ZM799.036,1699.97L799.412,1699.97C799.476,1699.97 799.547,1699.96 799.624,1699.95C799.702,1699.94 799.774,1699.92 799.84,1699.88C799.907,1699.85 799.963,1699.8 800.008,1699.74C800.054,1699.68 800.076,1699.6 800.076,1699.49C800.076,1699.39 800.058,1699.31 800.02,1699.25C799.983,1699.2 799.935,1699.15 799.876,1699.12C799.818,1699.09 799.754,1699.07 799.684,1699.07C799.615,1699.06 799.551,1699.05 799.492,1699.05L799.036,1699.05L799.036,1699.97ZM822.292,1699.05L822.292,1699.97L822.692,1699.97C822.836,1699.97 822.968,1699.93 823.088,1699.86C823.208,1699.79 823.268,1699.66 823.268,1699.49C823.268,1699.4 823.252,1699.33 823.22,1699.27C823.188,1699.22 823.144,1699.17 823.088,1699.14C823.032,1699.11 822.97,1699.09 822.9,1699.07C822.831,1699.06 822.762,1699.05 822.692,1699.05L822.292,1699.05ZM822.987,1694.77L812.5,1694.77C813.049,1694.73 813.589,1694.65 814.121,1694.54C814.964,1694.36 815.713,1694.06 816.368,1693.64C816.76,1693.39 817.106,1693.1 817.407,1692.76C818.177,1693.38 819.071,1693.86 820.091,1694.21C820.988,1694.51 821.954,1694.69 822.987,1694.77ZM797.195,1690.03L799.009,1690.03C799.485,1690.03 799.873,1689.92 800.171,1689.71C800.469,1689.5 800.618,1689.19 800.618,1688.78C800.618,1688.54 800.554,1688.35 800.426,1688.19C800.298,1688.04 800.141,1687.91 799.954,1687.82C799.766,1687.73 799.566,1687.66 799.353,1687.63C799.141,1687.6 798.941,1687.58 798.753,1687.58L797.195,1687.58L797.195,1690.03ZM809.001,1687.58L809.001,1690.03L810.814,1690.03C811.29,1690.03 811.678,1689.92 811.976,1689.71C812.274,1689.5 812.423,1689.19 812.423,1688.78C812.423,1688.54 812.359,1688.35 812.231,1688.19C812.103,1688.04 811.946,1687.91 811.759,1687.82C811.571,1687.73 811.371,1687.66 811.159,1687.63C810.946,1687.6 810.746,1687.58 810.558,1687.58L809.001,1687.58ZM820.78,1685.66C820.78,1686.26 820.869,1686.8 821.048,1687.3C821.227,1687.79 821.474,1688.22 821.789,1688.58C822.104,1688.93 822.483,1689.21 822.925,1689.4C823.368,1689.6 823.845,1689.7 824.355,1689.7C824.866,1689.7 825.339,1689.6 825.773,1689.4C826.207,1689.21 826.586,1688.93 826.909,1688.58C827.233,1688.22 827.484,1687.79 827.663,1687.3C827.841,1686.8 827.931,1686.26 827.931,1685.66C827.931,1685.09 827.841,1684.55 827.663,1684.07C827.484,1683.58 827.233,1683.17 826.909,1682.84C826.586,1682.51 826.207,1682.25 825.773,1682.06C825.339,1681.88 824.866,1681.78 824.355,1681.78C823.845,1681.78 823.368,1681.88 822.925,1682.06C822.483,1682.25 822.104,1682.51 821.789,1682.84C821.474,1683.17 821.227,1683.58 821.048,1684.07C820.869,1684.55 820.78,1685.09 820.78,1685.66ZM797.195,1681.45L797.195,1683.67L798.83,1683.67C799.256,1683.67 799.605,1683.57 799.877,1683.38C800.149,1683.18 800.286,1682.88 800.286,1682.47C800.286,1682.13 800.141,1681.88 799.851,1681.7C799.562,1681.54 799.179,1681.45 798.702,1681.45L797.195,1681.45ZM809.001,1681.45L809.001,1683.67L810.635,1683.67C811.061,1683.67 811.41,1683.57 811.682,1683.38C811.954,1683.18 812.091,1682.88 812.091,1682.47C812.091,1682.13 811.946,1681.88 811.657,1681.7C811.367,1681.54 810.984,1681.45 810.507,1681.45L809.001,1681.45Z"/>
            </g>
        </g>
    </g>
</svg>
